<?xml version="1.0" encoding="UTF-8"?>
<svg id="Layer_1" data-name="Layer 1" xmlns="http://www.w3.org/2000/svg" viewBox="0 0 786 786">
  <defs>
    <style>
      .cls-1 {
        fill: #1fb6d5;
      }

      .cls-1, .cls-2, .cls-3, .cls-4, .cls-5, .cls-6, .cls-7 {
        stroke-width: 0px;
      }

      .cls-2 {
        fill: #e54e33;
      }

      .cls-3 {
        fill: #e2b8cb;
      }

      .cls-4 {
        fill: #5b499c;
      }

      .cls-5 {
        fill: #fff;
      }

      .cls-6 {
        fill: #ebe1a5;
      }

      .cls-7 {
        fill: #4fb982;
      }
    </style>
  </defs>
  <path class="cls-1" d="m687.84,6.69l-375.82,779.31h-170.8c-14.49,0-28.46-2.18-41.62-6.24L475.64,0h169.14c15.02,0,29.48,2.34,43.06,6.69Z"/>
  <path class="cls-6" d="m786,141.22v108.66l-258.54,536.12h-215.44L687.84,6.69c56.93,18.2,98.16,71.55,98.16,134.53Z"/>
  <path class="cls-7" d="m786,249.88v394.9c0,77.99-63.23,141.22-141.22,141.22h-117.32L786,249.88Z"/>
  <path class="cls-3" d="m475.64,0L99.6,779.76C41.92,762,0,708.29,0,644.78v-105.23L260.2,0h215.44Z"/>
  <path class="cls-2" d="m260.2,0L0,539.55V141.22C0,63.23,63.23,0,141.22,0h118.98Z"/>
  <rect class="cls-4" x="24.5" y="24.5" width="737" height="737" rx="119.53" ry="119.53"/>
  <g>
    <path class="cls-5" d="m247.25,569.25c-28,0-48.67-8-62-24-13.34-16-17.84-38-13.5-66l18.5-117.5h-74l10.5-67.5h74l12.5-77.5h75l-12.5,77.5h107.5l-10.5,67.5h-107.5l-18.5,115c-1,7.34,0,13.34,3,18,3,4.67,8.16,7,15.5,7h82.5l-10.5,67.5h-90Z"/>
    <path class="cls-5" d="m418.75,569.25l11-70h240l-11,70h-240Z"/>
  </g>
</svg>